<?xml version="1.0" encoding="utf-8"?>
<!-- Generator: Adobe Illustrator 22.1.0, SVG Export Plug-In . SVG Version: 6.00 Build 0)  -->
<svg version="1.1" id="Layer_1" xmlns="http://www.w3.org/2000/svg" xmlns:xlink="http://www.w3.org/1999/xlink" x="0px" y="0px"
	 viewBox="0 0 50 42.4" style="enable-background:new 0 0 50 42.4;" xml:space="preserve">
<style type="text/css">
	.st0{fill:#FFFFFF;}
</style>
<title>logo</title>
<path class="st0" d="M0,21.2c0,11.7,9.5,21.2,21.2,21.2c11.7,0,21.2-9.5,21.2-21.2C42.4,9.5,32.9,0,21.2,0c0,0,0,0,0,0
	C9.5,0,0,9.5,0,21.2z M7.6,21.2c0-7.5,6.1-13.6,13.6-13.6s13.6,6.1,13.6,13.6s-6.1,13.6-13.6,13.6c0,0,0,0,0,0
	C13.7,34.8,7.6,28.7,7.6,21.2C7.6,21.2,7.6,21.2,7.6,21.2z"/>
<circle class="st0" cx="46.2" cy="37.5" r="3.8"/>
</svg>
